<svg width="44" height="44" viewBox="0 0 44 44" fill="none" xmlns="http://www.w3.org/2000/svg">
<circle cx="22" cy="22" r="22" fill="white"/>
<path d="M31.7552 30.668C31.8307 30.7384 31.8914 30.8233 31.9334 30.9177C31.9755 31.0121 31.9981 31.1139 31.9999 31.2172C32.0017 31.3205 31.9827 31.4231 31.944 31.5189C31.9053 31.6146 31.8477 31.7017 31.7747 31.7747C31.7017 31.8477 31.6146 31.9053 31.5189 31.944C31.4231 31.9827 31.3205 32.0017 31.2172 31.9999C31.1139 31.9981 31.0121 31.9755 30.9177 31.9334C30.8233 31.8914 30.7384 31.8307 30.668 31.7552L21.9808 23.0693L13.2936 31.7552C13.1478 31.8911 12.9549 31.965 12.7557 31.9615C12.5564 31.958 12.3662 31.8773 12.2253 31.7363C12.0844 31.5954 12.0036 31.4052 12.0001 31.206C11.9966 31.0067 12.0706 30.8138 12.2065 30.668L20.8924 21.9808L12.2065 13.2936C12.0706 13.1478 11.9966 12.9549 12.0001 12.7557C12.0036 12.5564 12.0844 12.3662 12.2253 12.2253C12.3662 12.0844 12.5564 12.0036 12.7557 12.0001C12.9549 11.9966 13.1478 12.0706 13.2936 12.2065L21.9808 20.8924L30.668 12.2065C30.8138 12.0706 31.0067 11.9966 31.206 12.0001C31.4052 12.0036 31.5954 12.0844 31.7363 12.2253C31.8773 12.3662 31.958 12.5564 31.9615 12.7557C31.965 12.9549 31.8911 13.1478 31.7552 13.2936L23.0693 21.9808L31.7552 30.668Z" fill="#171614"/>
</svg>
