<svg width="160" height="152" viewBox="0 0 160 152" fill="none" xmlns="http://www.w3.org/2000/svg">
<path d="M155.747 118.2C155.362 116.708 154.625 115.328 153.597 114.175C152.57 113.023 151.28 112.13 149.836 111.572C148.344 111.152 146.773 111.091 145.253 111.396C143.733 111.7 142.307 112.361 141.096 113.323C137.885 115.796 135.481 119.156 134.183 122.982C132.886 126.809 132.753 130.931 133.802 134.831C134.186 136.324 134.923 137.703 135.951 138.856C136.979 140.009 138.268 140.901 139.712 141.459C141.204 141.88 142.775 141.94 144.296 141.636C145.816 141.331 147.241 140.671 148.453 139.708C151.714 137.297 154.133 133.93 155.369 130.08C156.747 126.257 156.879 122.101 155.747 118.2ZM150.968 108.258C152.906 109.012 154.639 110.208 156.026 111.751C157.413 113.293 158.416 115.138 158.954 117.137C160.41 121.768 160.343 126.739 158.765 131.33C157.289 135.856 154.432 139.811 150.591 142.647C148.945 143.912 147.024 144.776 144.981 145.167C142.939 145.558 140.832 145.466 138.832 144.898C136.894 144.144 135.161 142.948 133.774 141.406C132.387 139.864 131.384 138.018 130.846 136.019C129.483 131.407 129.615 126.485 131.224 121.951C132.693 117.372 135.575 113.368 139.461 110.509C141.072 109.272 142.948 108.419 144.943 108.018C146.938 107.617 149 107.678 150.968 108.196V108.258Z" fill="#CCF0E5"/>
<path d="M148.014 112.573C148.373 112.258 148.842 112.097 149.32 112.126C149.797 112.156 150.244 112.373 150.561 112.729C150.878 113.086 151.039 113.553 151.009 114.028C150.98 114.502 150.762 114.946 150.403 115.261C143.55 121.514 144.996 124.765 146.316 127.766C147.637 130.767 149.586 135.644 142.669 141.272C142.488 141.419 142.278 141.53 142.054 141.598C141.829 141.665 141.593 141.688 141.36 141.665C141.126 141.641 140.899 141.573 140.692 141.462C140.486 141.352 140.303 141.202 140.154 141.021C140.005 140.841 139.894 140.633 139.826 140.409C139.758 140.186 139.736 139.951 139.759 139.719C139.782 139.487 139.851 139.262 139.962 139.056C140.073 138.85 140.224 138.668 140.406 138.52C145.31 134.581 144.178 131.955 143.047 129.142C141.223 124.765 139.274 120.076 148.077 112.385" fill="#CCF0E5"/>
<path fill-rule="evenodd" clip-rule="evenodd" d="M105.569 124.453C109.97 118.825 119.779 119.138 127.451 125.078C135.122 131.018 137.826 140.396 133.424 146.024C129.023 151.651 119.213 151.338 111.542 145.398C103.871 139.458 101.167 130.08 105.569 124.453Z" fill="white"/>
<path d="M115.191 122.202C113.652 122.065 112.102 122.295 110.67 122.871C109.238 123.447 107.964 124.354 106.953 125.516C106.061 126.771 105.481 128.219 105.262 129.741C105.043 131.263 105.192 132.815 105.696 134.269C106.982 138.094 109.375 141.457 112.573 143.937C115.772 146.417 119.635 147.904 123.68 148.212C125.203 148.341 126.735 148.114 128.154 147.549C129.573 146.985 130.84 146.098 131.854 144.961C132.701 143.708 133.245 142.276 133.441 140.779C133.638 139.282 133.482 137.759 132.986 136.332C131.767 132.491 129.37 129.124 126.132 126.704C122.964 124.158 119.069 122.67 115.002 122.452M103.809 123.702C105.17 122.021 106.925 120.696 108.92 119.846C110.916 118.996 113.09 118.645 115.254 118.825C120.073 119.151 124.684 120.903 128.494 123.856C132.304 126.808 135.138 130.827 136.633 135.394C137.293 137.381 137.466 139.495 137.138 141.562C136.81 143.628 135.99 145.587 134.746 147.274C133.401 148.88 131.689 150.144 129.753 150.959C127.817 151.775 125.713 152.119 123.617 151.963C118.797 151.638 114.186 149.886 110.376 146.933C106.566 143.98 103.732 139.962 102.237 135.394C101.554 133.408 101.358 131.288 101.664 129.211C101.97 127.134 102.77 125.16 103.998 123.452L103.809 123.702Z" fill="#CCF0E5"/>
<path d="M107.519 127.642C107.376 127.416 107.285 127.162 107.252 126.898C107.219 126.634 107.245 126.365 107.328 126.112C107.411 125.859 107.55 125.627 107.733 125.433C107.917 125.239 108.141 125.087 108.39 124.989C108.639 124.891 108.907 124.849 109.174 124.865C109.442 124.881 109.702 124.956 109.937 125.084C110.172 125.212 110.376 125.39 110.534 125.605C110.692 125.82 110.801 126.067 110.852 126.329C114.247 134.769 118.02 134.582 121.604 134.332C125.188 134.082 130.156 133.832 133.237 142.272C133.395 142.72 133.369 143.212 133.162 143.64C132.956 144.068 132.587 144.397 132.137 144.555C131.686 144.712 131.192 144.685 130.761 144.48C130.331 144.275 130 143.908 129.842 143.46C127.704 137.583 124.874 137.708 121.793 137.896C117.014 137.896 111.921 138.458 107.519 127.642Z" fill="#CCF0E5"/>
<path d="M55.391 76.8716H20.9327V96.817C20.461 106.96 23.5508 116.951 29.673 125.078C32.3952 128.409 35.8399 131.084 39.7492 132.903C43.6586 134.722 47.9311 135.638 52.247 135.582H68.8473C73.1737 135.647 77.4586 134.736 81.3795 132.917C85.3004 131.097 88.7553 128.417 91.4841 125.078C97.5506 117.019 100.637 107.126 100.224 97.0671V76.8716H55.391ZM18.9206 73.3077H101.985C102.469 73.3077 102.932 73.4988 103.274 73.8388C103.616 74.1789 103.809 74.6401 103.809 75.121V96.817C104.254 107.682 100.923 118.369 94.3765 127.079C91.3674 130.843 87.5429 133.882 83.1879 135.972C78.833 138.061 74.0599 139.146 69.2246 139.146H52.247C47.4116 139.146 42.6385 138.061 38.2836 135.972C33.9286 133.882 30.1041 130.843 27.095 127.079C20.5035 118.385 17.1279 107.697 17.5372 96.817V75.0584C17.5392 74.6552 17.6763 74.2642 17.9268 73.9471C18.1774 73.63 18.527 73.4051 18.9206 73.3077Z" fill="#CCF0E5"/>
<path d="M98.5895 120.201C98.3821 120.374 98.1387 120.498 97.8769 120.566C97.6151 120.633 97.3415 120.642 97.0759 120.592C96.8103 120.541 96.5593 120.432 96.3412 120.273C96.123 120.114 95.9432 119.909 95.8147 119.672C95.6862 119.436 95.6122 119.174 95.5982 118.905C95.5841 118.636 95.6303 118.368 95.7334 118.12C95.8365 117.871 95.9939 117.648 96.1943 117.468C96.3946 117.287 96.6329 117.153 96.8918 117.075L103.18 114.011C106.009 112.636 108.65 111.26 111.166 109.822C113.896 108.595 116.307 106.762 118.215 104.465C120.122 102.167 121.475 99.4652 122.17 96.5669C122.459 94.4529 122.199 92.3005 121.415 90.3145C120.671 88.3805 119.512 86.631 118.019 85.1874C117.139 84.1813 116.028 83.4004 114.781 82.9107C113.533 82.421 112.185 82.2369 110.851 82.3738C109.541 82.6517 108.313 83.2298 107.267 84.062C105.812 85.3893 104.692 87.0386 103.997 88.8764C103.951 89.1459 103.844 89.4014 103.684 89.6239C103.524 89.8464 103.316 90.0302 103.075 90.1614C102.834 90.2926 102.566 90.3678 102.291 90.3815C102.017 90.3952 101.743 90.347 101.489 90.2405C101.236 90.134 101.01 89.9719 100.829 89.7664C100.648 89.5609 100.516 89.3173 100.442 89.0538C100.369 88.7903 100.357 88.5138 100.406 88.2449C100.455 87.9759 100.565 87.7216 100.727 87.5009C101.632 85.0925 103.123 82.9444 105.066 81.2484C106.528 80.055 108.251 79.2198 110.097 78.8099C112.017 78.5196 113.98 78.7043 115.811 79.3477C117.643 79.9912 119.287 81.0734 120.598 82.4989C122.455 84.2562 123.913 86.388 124.873 88.7514C125.904 91.3741 126.229 94.2188 125.817 97.0046C125.075 100.421 123.555 103.623 121.375 106.366C119.195 109.108 116.413 111.317 113.241 112.823C110.725 114.261 107.959 115.637 105.066 117.075L99.0926 120.139" fill="#CCF0E5"/>
<path fill-rule="evenodd" clip-rule="evenodd" d="M62.3702 148.274H26.1513C20.555 148.274 15.9019 141.271 15.3359 132.33C17.4739 132.33 19.8004 132.018 22.4414 132.018H98.7148C101.356 132.018 103.682 132.33 105.82 132.33C105.254 141.271 100.601 148.274 95.0049 148.274H62.3702Z" fill="white"/>
<path d="M58.7856 146.524H95.0045C96.1989 146.401 97.3448 145.989 98.3422 145.324C99.3396 144.659 100.158 143.762 100.727 142.71C102.399 140.081 103.453 137.11 103.808 134.019H102.424H98.7144H22.441H18.731H17.3477C17.7027 137.11 18.756 140.081 20.4288 142.71C20.9971 143.762 21.8157 144.659 22.8132 145.324C23.8106 145.989 24.9565 146.401 26.1509 146.524H58.7856ZM62.3698 150.088H26.1509C24.3598 149.983 22.6231 149.436 21.0973 148.497C19.5715 147.559 18.3046 146.257 17.4106 144.711C15.0396 140.954 13.7158 136.638 13.5749 132.206C13.5578 131.971 13.5887 131.735 13.6655 131.512C13.7424 131.289 13.8637 131.084 14.0223 130.908C14.1808 130.733 14.3733 130.592 14.5881 130.492C14.803 130.393 15.0358 130.338 15.2726 130.33H18.2909H22.2523H98.7144H102.676H105.82C106.056 130.321 106.292 130.361 106.513 130.445C106.734 130.529 106.935 130.657 107.106 130.82C107.276 130.983 107.411 131.179 107.504 131.396C107.596 131.612 107.644 131.845 107.643 132.081C107.502 136.513 106.179 140.829 103.808 144.585C102.928 146.168 101.659 147.503 100.119 148.465C98.5798 149.427 96.82 149.986 95.0045 150.088H62.3698Z" fill="#CCF0E5"/>
<path fill-rule="evenodd" clip-rule="evenodd" d="M1.9423 138.083C1.06198 131.018 8.2303 124.328 17.8509 123.14C27.4716 121.952 36.0861 126.641 36.7149 133.706C37.3437 140.772 30.4269 147.462 20.8063 148.65C11.1857 149.838 2.5711 145.148 1.9423 138.083Z" fill="white"/>
<path d="M7.16206 129.704C6.01501 130.665 5.10622 131.875 4.50639 133.241C3.90655 134.608 3.63185 136.093 3.70365 137.583C3.99916 139.062 4.63562 140.453 5.56301 141.646C6.4904 142.84 7.68347 143.803 9.04845 144.46C12.6418 146.324 16.7311 147.023 20.7441 146.461C24.6943 146.131 28.4474 144.603 31.4966 142.084C32.679 141.098 33.6091 139.848 34.2103 138.434C34.8116 137.021 35.0668 135.486 34.955 133.956C34.6915 132.441 34.0694 131.011 33.1401 129.782C32.2107 128.554 31.0008 127.563 29.6102 126.891C26.033 125.117 21.9927 124.484 18.0403 125.078C13.9957 125.507 10.1897 127.191 7.16206 129.892M0.0566146 138.27C-0.138091 136.181 0.171077 134.076 0.958459 132.13C1.74584 130.183 2.98873 128.452 4.58397 127.078C8.16792 123.865 12.6773 121.852 17.4744 121.326C22.2902 120.645 27.1992 121.499 31.4966 123.765C33.3863 124.705 35.0227 126.081 36.2695 127.778C37.5164 129.474 38.3377 131.443 38.6649 133.518C38.8596 135.608 38.5505 137.713 37.7631 139.659C36.9757 141.606 35.7328 143.337 34.1376 144.71C30.5536 147.924 26.0443 149.937 21.2472 150.463C16.4586 151.149 11.5741 150.318 7.28782 148.087C5.37857 147.148 3.72472 145.766 2.46608 144.057C1.20743 142.348 0.380993 140.364 0.0566146 138.27Z" fill="#CCF0E5"/>
<path d="M5.59019 138.959C5.3192 138.912 5.0622 138.806 4.83842 138.647C4.61464 138.488 4.42987 138.281 4.29793 138.041C4.16599 137.802 4.09029 137.535 4.07651 137.262C4.06273 136.989 4.11121 136.717 4.21834 136.465C4.32546 136.213 4.48845 135.989 4.69511 135.808C4.90178 135.628 5.14677 135.497 5.41175 135.424C5.67674 135.351 5.95486 135.339 6.22532 135.388C6.49578 135.437 6.75157 135.546 6.97355 135.707C15.3995 139.271 17.9147 136.458 20.2412 133.832C22.5678 131.206 25.9633 127.579 34.0748 131.268C34.5084 131.467 34.8448 131.829 35.0099 132.275C35.175 132.72 35.1553 133.213 34.9552 133.644C34.755 134.075 34.3909 134.41 33.9428 134.574C33.4946 134.738 32.9993 134.718 32.5657 134.519C26.8436 131.831 24.9572 133.957 22.9451 136.27C19.8011 139.834 16.6571 143.648 5.59019 139.084" fill="#CCF0E5"/>
<path fill-rule="evenodd" clip-rule="evenodd" d="M78.2165 63.9291C77.0227 63.9238 75.8438 63.6643 74.7593 63.1682C73.6747 62.6721 72.7094 61.9509 71.9285 61.053C70.1954 59.1515 69.2321 56.679 69.2247 54.1127C69.2155 51.5409 70.0549 49.037 71.6141 46.9849C73.062 45.0019 75.1118 43.5335 77.462 42.7958C76.2317 44.609 75.1789 46.5352 74.318 48.548C73.5611 50.3331 73.135 52.2395 73.0604 54.1753C73.0741 56.0923 73.5494 57.9782 74.4465 59.6752C75.3435 61.3722 76.6363 62.8308 78.2165 63.9291Z" fill="#CCF0E5"/>
<path d="M62.4958 12.5334C61.836 11.2409 61.0346 10.0247 60.1064 8.907C61.21 11.4885 61.8689 14.2363 62.0557 17.0352C62.0557 17.3478 62.0557 17.723 62.0557 18.0981C62.0488 20.4516 61.6885 22.7908 60.9867 25.0384C60.5465 26.3514 60.0435 27.6644 59.4776 28.9774C58.9117 30.2904 58.3457 31.4784 57.7798 32.7289L57.2139 33.9794C56.2078 36.2303 55.1389 38.5437 54.2585 40.9822C53.1574 43.8752 52.6445 46.9567 52.7494 50.0482C52.7494 50.0482 52.7494 50.611 52.7494 50.8611C52.8223 52.3961 53.1188 53.9125 53.6297 55.3628C54.1276 56.7876 54.8262 58.1349 55.7048 59.3644C55.3672 58.3661 55.1148 57.3412 54.9502 56.3007C54.8662 55.2812 54.8662 54.2565 54.9502 53.237C54.9502 52.8619 54.9502 52.4867 54.9502 52.049C54.9502 51.6114 54.9502 51.3613 54.9502 50.9861C55.7232 46.7549 57.1889 42.6783 59.2889 38.9188L61.1125 35.1674C61.8084 33.6395 62.4172 32.0739 62.936 30.478C63.4286 29.0833 63.8483 27.6642 64.1936 26.2263C64.3623 25.4627 64.4882 24.6904 64.5709 23.9129C64.7463 22.3547 64.7463 20.7818 64.5709 19.2236C64.4857 18.4671 64.3598 17.7157 64.1936 16.9727C63.8104 15.4301 63.2403 13.9394 62.4958 12.5334ZM55.2646 0.0284948L57.2139 1.27899L59.1003 2.77958L60.0435 3.5924L61.0496 4.8429L62.936 6.28096C65.2206 9.00838 66.8544 12.2148 67.7149 15.6597C68.5336 19.2193 68.5336 22.9168 67.7149 26.4764C67.3322 28.0203 66.8705 29.5437 66.3315 31.0407C65.7813 32.5931 65.1516 34.1165 64.4451 35.605L62.6216 39.4816C60.7038 42.893 59.3453 46.5866 58.5973 50.4234C58.5973 50.4234 58.5973 50.9861 58.5973 51.2987C58.5973 51.6114 58.5973 51.924 58.5973 52.2991C58.5943 53.9587 58.8706 55.6071 59.4147 57.1761C59.891 58.4958 60.4367 59.7898 61.0496 61.0526C61.6541 62.3168 62.3258 63.5482 63.0617 64.7415C63.2364 65.0827 63.298 65.47 63.2377 65.8481C63.1774 66.2262 62.9983 66.5756 62.7261 66.8462C62.4539 67.1169 62.1025 67.295 61.7223 67.3549C61.342 67.4149 60.9525 67.3537 60.6094 67.18C59.1483 66.3439 57.7786 65.359 56.5222 64.2413C55.3136 63.1438 54.2183 61.9289 53.2525 60.6149C52.0989 59.3117 51.1261 57.8607 50.36 56.3007C49.7384 54.5276 49.3783 52.6743 49.291 50.7985C49.291 50.4859 49.291 50.1733 49.291 49.8607C49.2953 46.6389 49.87 43.4431 50.9888 40.4194C51.8691 37.7934 53.0009 35.3549 54.0699 33.0415L54.6358 31.8536V31.2908C55.2017 30.1654 55.7677 28.9774 56.2707 27.7269C56.7737 26.4764 57.2768 25.2885 57.7169 23.9754C58.3734 21.9567 58.692 19.8444 58.6601 17.723C58.6601 17.723 58.6601 17.1603 58.6601 16.9102C58.3493 14.6283 57.6698 12.4114 56.648 10.3451C56.0821 9.09457 55.4533 7.78156 54.7616 6.53106C54.0699 5.28057 53.504 4.03007 52.8123 2.84211C52.608 2.54738 52.4961 2.19914 52.4905 1.84126C52.4849 1.48337 52.586 1.13186 52.781 0.830995C52.976 0.530133 53.2562 0.293384 53.5863 0.150576C53.9163 0.00776812 54.2815 -0.0347095 54.6358 0.0284948H55.2646Z" fill="#CCF0E5"/>
<path d="M67.39 91.0614C64.5549 91.0614 62.0897 92.4249 60.6397 94.7099C59.1897 92.4249 56.7245 91.0614 53.8894 91.0614C51.7418 91.0641 49.6829 91.9751 48.1644 93.5946C46.6458 95.2142 45.7916 97.41 45.7891 99.7004C45.7891 103.905 48.2462 108.28 53.0929 112.703C55.3138 114.722 57.7128 116.506 60.2563 118.031C60.3742 118.098 60.5059 118.134 60.6397 118.134C60.7735 118.134 60.9052 118.098 61.0231 118.031C63.5666 116.506 65.9656 114.722 68.1865 112.703C73.0332 108.28 75.4903 103.905 75.4903 99.7004C75.4878 97.41 74.6336 95.2142 73.115 93.5946C71.5965 91.9751 69.5376 91.0641 67.39 91.0614Z" fill="#CCF0E5"/>
</svg>
