<svg width="28" height="26" viewBox="0 0 28 26" fill="none" xmlns="http://www.w3.org/2000/svg">
<path d="M19.4545 2C17.1636 2 15.1716 3.10805 14 4.96493C12.8284 3.10805 10.8364 2 8.54545 2C6.81011 2.00217 5.14642 2.74251 3.91935 4.05861C2.69228 5.37471 2.00202 7.15911 2 9.02035C2 12.4369 3.98545 15.9927 7.90182 19.5872C9.69642 21.2273 11.6349 22.6771 13.6902 23.9164C13.7854 23.9713 13.8919 24 14 24C14.1081 24 14.2146 23.9713 14.3098 23.9164C16.3651 22.6771 18.3036 21.2273 20.0982 19.5872C24.0145 15.9927 26 12.4369 26 9.02035C25.998 7.15911 25.3077 5.37471 24.0806 4.05861C22.8536 2.74251 21.1899 2.00217 19.4545 2ZM14 22.4889C12.2098 21.3809 3.30909 15.5399 3.30909 9.02035C3.31053 7.5313 3.86269 6.10367 4.84438 5.05075C5.82608 3.99783 7.15713 3.40562 8.54545 3.40407C10.7578 3.40407 12.6156 4.67124 13.3945 6.71183C13.4439 6.84059 13.5277 6.95072 13.6356 7.02822C13.7434 7.10573 13.8702 7.14711 14 7.14711C14.1298 7.14711 14.2566 7.10573 14.3644 7.02822C14.4723 6.95072 14.5561 6.84059 14.6055 6.71183C15.3844 4.67124 17.2422 3.40407 19.4545 3.40407C20.8429 3.40562 22.1739 3.99783 23.1556 5.05075C24.1373 6.10367 24.6895 7.5313 24.6909 9.02035C24.6909 15.5399 15.7902 21.3809 14 22.4889Z" fill="white"/>
</svg>
