<svg width="44" height="44" viewBox="0 0 44 44" fill="none" xmlns="http://www.w3.org/2000/svg">
<rect width="44" height="44" rx="22" fill="white"/>
<path d="M27.4545 12C25.1636 12 23.1716 13.108 22 14.9649C20.8284 13.108 18.8364 12 16.5455 12C14.8101 12.0022 13.1464 12.7425 11.9194 14.0586C10.6923 15.3747 10.002 17.1591 10 19.0204C10 22.4369 11.9855 25.9927 15.9018 29.5872C17.6964 31.2273 19.6349 32.6771 21.6902 33.9164C21.7854 33.9713 21.8919 34 22 34C22.1081 34 22.2146 33.9713 22.3098 33.9164C24.3651 32.6771 26.3036 31.2273 28.0982 29.5872C32.0145 25.9927 34 22.4369 34 19.0204C33.998 17.1591 33.3077 15.3747 32.0806 14.0586C30.8536 12.7425 29.1899 12.0022 27.4545 12ZM22 32.4889C20.2098 31.3809 11.3091 25.5399 11.3091 19.0204C11.3105 17.5313 11.8627 16.1037 12.8444 15.0508C13.8261 13.9978 15.1571 13.4056 16.5455 13.4041C18.7578 13.4041 20.6156 14.6712 21.3945 16.7118C21.4439 16.8406 21.5277 16.9507 21.6356 17.0282C21.7434 17.1057 21.8702 17.1471 22 17.1471C22.1298 17.1471 22.2566 17.1057 22.3644 17.0282C22.4723 16.9507 22.5561 16.8406 22.6055 16.7118C23.3844 14.6712 25.2422 13.4041 27.4545 13.4041C28.8429 13.4056 30.1739 13.9978 31.1556 15.0508C32.1373 16.1037 32.6895 17.5313 32.6909 19.0204C32.6909 25.5399 23.7902 31.3809 22 32.4889Z" fill="#171614"/>
</svg>
