<svg width="152" height="27" viewBox="0 0 152 27" fill="none" xmlns="http://www.w3.org/2000/svg">
<path d="M7.69651 21.336C6.40851 21.336 5.24185 21.056 4.19651 20.496C3.16985 19.9173 2.34851 19.0867 1.73251 18.004C1.13518 16.9027 0.836514 15.5867 0.836514 14.056C0.836514 12.5067 1.17251 11.1907 1.84451 10.108C2.51651 9.02533 3.40318 8.204 4.50451 7.644C5.60585 7.06533 6.79118 6.776 8.06051 6.776C8.91918 6.776 9.67518 6.916 10.3285 7.196C11.0005 7.476 11.5978 7.83067 12.1205 8.26L10.1885 10.92C9.53518 10.3787 8.90985 10.108 8.31251 10.108C7.32318 10.108 6.52985 10.4627 5.93251 11.172C5.35385 11.8813 5.06451 12.8427 5.06451 14.056C5.06451 15.2507 5.35385 16.212 5.93251 16.94C6.52985 17.6493 7.27651 18.004 8.17251 18.004C8.62051 18.004 9.05918 17.9107 9.48851 17.724C9.91785 17.5187 10.3098 17.276 10.6645 16.996L12.2885 19.684C11.5978 20.2813 10.8512 20.7107 10.0485 20.972C9.24585 21.2147 8.46185 21.336 7.69651 21.336ZM20.1699 21.336C18.9939 21.336 17.8832 21.056 16.8379 20.496C15.8112 19.9173 14.9805 19.0867 14.3459 18.004C13.7112 16.9027 13.3939 15.5867 13.3939 14.056C13.3939 12.5067 13.7112 11.1907 14.3459 10.108C14.9805 9.02533 15.8112 8.204 16.8379 7.644C17.8832 7.06533 18.9939 6.776 20.1699 6.776C21.3459 6.776 22.4472 7.06533 23.4739 7.644C24.5005 8.204 25.3312 9.02533 25.9659 10.108C26.6005 11.1907 26.9179 12.5067 26.9179 14.056C26.9179 15.5867 26.6005 16.9027 25.9659 18.004C25.3312 19.0867 24.5005 19.9173 23.4739 20.496C22.4472 21.056 21.3459 21.336 20.1699 21.336ZM20.1699 18.004C21.0099 18.004 21.6445 17.6493 22.0739 16.94C22.5032 16.212 22.7179 15.2507 22.7179 14.056C22.7179 12.8427 22.5032 11.8813 22.0739 11.172C21.6445 10.4627 21.0099 10.108 20.1699 10.108C19.3112 10.108 18.6672 10.4627 18.2379 11.172C17.8272 11.8813 17.6219 12.8427 17.6219 14.056C17.6219 15.2507 17.8272 16.212 18.2379 16.94C18.6672 17.6493 19.3112 18.004 20.1699 18.004ZM39.4284 21V10.332H34.6964V21H30.5804V10.332H28.7324V7.28L30.5804 7.14V6.496C30.5804 5.544 30.7577 4.676 31.1124 3.892C31.4671 3.108 32.0271 2.48267 32.7924 2.016C33.5764 1.54933 34.5937 1.316 35.8444 1.316C36.4417 1.316 36.9924 1.372 37.4964 1.484C38.0004 1.57733 38.4111 1.68933 38.7284 1.82L37.9724 4.872C37.7484 4.77867 37.5151 4.704 37.2724 4.648C37.0297 4.592 36.7217 4.564 36.3484 4.564C35.8817 4.564 35.4897 4.72267 35.1724 5.04C34.8551 5.33867 34.6964 5.81467 34.6964 6.468V7.112H39.4284V6.384C39.4284 5.39467 39.5964 4.49867 39.9324 3.696C40.2684 2.89333 40.8097 2.24933 41.5564 1.764C42.3031 1.27867 43.3017 1.036 44.5524 1.036C45.1311 1.036 45.6631 1.092 46.1484 1.204C46.6337 1.316 47.0257 1.428 47.3244 1.54L46.5684 4.564C46.3257 4.47067 46.0831 4.40533 45.8404 4.368C45.5977 4.312 45.3644 4.284 45.1404 4.284C44.6364 4.284 44.2444 4.44267 43.9644 4.76C43.6844 5.05867 43.5444 5.56267 43.5444 6.272V7.112H46.0364V10.332H43.5444V21H39.4284ZM54.5053 21.336C53.18 21.336 51.9853 21.0467 50.9213 20.468C49.8573 19.8893 49.0173 19.0587 48.4013 17.976C47.7853 16.8933 47.4773 15.5867 47.4773 14.056C47.4773 12.544 47.7853 11.2467 48.4013 10.164C49.036 9.08133 49.8573 8.25067 50.8653 7.672C51.8733 7.07467 52.928 6.776 54.0293 6.776C55.3546 6.776 56.4466 7.07467 57.3053 7.672C58.1826 8.25067 58.836 9.044 59.2653 10.052C59.7133 11.0413 59.9373 12.1707 59.9373 13.44C59.9373 13.7947 59.9186 14.1493 59.8813 14.504C59.844 14.84 59.8066 15.092 59.7693 15.26H51.4533C51.64 16.268 52.06 17.0147 52.7133 17.5C53.3666 17.9667 54.1506 18.2 55.0653 18.2C56.0546 18.2 57.0533 17.892 58.0613 17.276L59.4333 19.768C58.724 20.2533 57.9306 20.636 57.0533 20.916C56.176 21.196 55.3266 21.336 54.5053 21.336ZM51.4253 12.544H56.4373C56.4373 11.7787 56.2506 11.1533 55.8773 10.668C55.5226 10.164 54.9346 9.912 54.1133 9.912C53.4786 9.912 52.9093 10.136 52.4053 10.584C51.9013 11.0133 51.5746 11.6667 51.4253 12.544ZM69.2775 21.336C67.9521 21.336 66.7575 21.0467 65.6935 20.468C64.6295 19.8893 63.7895 19.0587 63.1735 17.976C62.5575 16.8933 62.2495 15.5867 62.2495 14.056C62.2495 12.544 62.5575 11.2467 63.1735 10.164C63.8081 9.08133 64.6295 8.25067 65.6375 7.672C66.6455 7.07467 67.7001 6.776 68.8015 6.776C70.1268 6.776 71.2188 7.07467 72.0775 7.672C72.9548 8.25067 73.6081 9.044 74.0375 10.052C74.4855 11.0413 74.7095 12.1707 74.7095 13.44C74.7095 13.7947 74.6908 14.1493 74.6535 14.504C74.6161 14.84 74.5788 15.092 74.5415 15.26H66.2255C66.4121 16.268 66.8321 17.0147 67.4855 17.5C68.1388 17.9667 68.9228 18.2 69.8375 18.2C70.8268 18.2 71.8255 17.892 72.8335 17.276L74.2055 19.768C73.4961 20.2533 72.7028 20.636 71.8255 20.916C70.9481 21.196 70.0988 21.336 69.2775 21.336ZM66.1975 12.544H71.2095C71.2095 11.7787 71.0228 11.1533 70.6495 10.668C70.2948 10.164 69.7068 9.912 68.8855 9.912C68.2508 9.912 67.6815 10.136 67.1775 10.584C66.6735 11.0133 66.3468 11.6667 66.1975 12.544ZM88.6751 26.908C87.5925 26.908 86.6125 26.7867 85.7351 26.544C84.8578 26.3013 84.1578 25.9187 83.6351 25.396C83.1125 24.8733 82.8511 24.2013 82.8511 23.38C82.8511 22.26 83.5138 21.3267 84.8391 20.58V20.468C84.4845 20.2253 84.1765 19.9173 83.9151 19.544C83.6725 19.1707 83.5511 18.6947 83.5511 18.116C83.5511 17.612 83.7005 17.1267 83.9991 16.66C84.2978 16.1933 84.6711 15.8107 85.1191 15.512V15.4C84.6338 15.064 84.1951 14.5787 83.8031 13.944C83.4298 13.3093 83.2431 12.5907 83.2431 11.788C83.2431 10.668 83.5138 9.744 84.0551 9.016C84.5965 8.26933 85.3058 7.70933 86.1831 7.336C87.0605 6.96267 87.9938 6.776 88.9831 6.776C89.8045 6.776 90.5231 6.888 91.1391 7.112H96.2071V10.108H93.9951C94.1258 10.3133 94.2285 10.5747 94.3031 10.892C94.3965 11.2093 94.4431 11.5547 94.4431 11.928C94.4431 12.992 94.2005 13.8693 93.7151 14.56C93.2298 15.2507 92.5765 15.764 91.7551 16.1C90.9338 16.436 90.0098 16.604 88.9831 16.604C88.4418 16.604 87.8818 16.5107 87.3031 16.324C86.9671 16.604 86.7991 16.9493 86.7991 17.36C86.7991 17.7147 86.9578 17.976 87.2751 18.144C87.5925 18.312 88.1338 18.396 88.8991 18.396H91.1391C92.8565 18.396 94.1631 18.676 95.0591 19.236C95.9738 19.7773 96.4311 20.6733 96.4311 21.924C96.4311 22.876 96.1138 23.7253 95.4791 24.472C94.8445 25.2373 93.9485 25.8347 92.7911 26.264C91.6338 26.6933 90.2618 26.908 88.6751 26.908ZM88.9831 14.112C89.5245 14.112 89.9725 13.916 90.3271 13.524C90.7005 13.132 90.8871 12.5533 90.8871 11.788C90.8871 11.06 90.7005 10.5093 90.3271 10.136C89.9725 9.744 89.5245 9.548 88.9831 9.548C88.4418 9.548 87.9845 9.73467 87.6111 10.108C87.2565 10.4813 87.0791 11.0413 87.0791 11.788C87.0791 12.5533 87.2565 13.132 87.6111 13.524C87.9845 13.916 88.4418 14.112 88.9831 14.112ZM89.3191 24.332C90.2525 24.332 91.0178 24.164 91.6151 23.828C92.2125 23.492 92.5111 23.0907 92.5111 22.624C92.5111 22.1947 92.3245 21.9053 91.9511 21.756C91.5965 21.6067 91.0738 21.532 90.3831 21.532H88.9551C88.4885 21.532 88.0965 21.5133 87.7791 21.476C87.4805 21.4573 87.2191 21.42 86.9951 21.364C86.4911 21.812 86.2391 22.2693 86.2391 22.736C86.2391 23.2587 86.5191 23.6507 87.0791 23.912C87.6578 24.192 88.4045 24.332 89.3191 24.332ZM103.128 21.336C101.616 21.336 100.515 20.8413 99.8242 19.852C99.1522 18.844 98.8162 17.472 98.8162 15.736V7.112H102.932V15.204C102.932 16.1933 103.072 16.884 103.352 17.276C103.632 17.6493 104.071 17.836 104.668 17.836C105.191 17.836 105.63 17.7147 105.984 17.472C106.339 17.2293 106.722 16.8373 107.132 16.296V7.112H111.248V21H107.888L107.58 19.068H107.496C106.918 19.7587 106.283 20.3093 105.592 20.72C104.902 21.1307 104.08 21.336 103.128 21.336ZM115.15 21V7.112H119.266V21H115.15ZM117.194 5.068C116.504 5.068 115.944 4.872 115.514 4.48C115.085 4.088 114.87 3.56533 114.87 2.912C114.87 2.25867 115.085 1.736 115.514 1.344C115.944 0.951999 116.504 0.755999 117.194 0.755999C117.885 0.755999 118.445 0.951999 118.874 1.344C119.304 1.736 119.518 2.25867 119.518 2.912C119.518 3.56533 119.304 4.088 118.874 4.48C118.445 4.872 117.885 5.068 117.194 5.068ZM128.125 21.336C126.407 21.336 125.026 20.692 123.981 19.404C122.954 18.0973 122.441 16.3147 122.441 14.056C122.441 12.544 122.711 11.2467 123.253 10.164C123.813 9.06267 124.531 8.22267 125.409 7.644C126.305 7.06533 127.238 6.776 128.209 6.776C128.974 6.776 129.618 6.90667 130.141 7.168C130.663 7.42933 131.158 7.784 131.625 8.232L131.457 6.104V1.372H135.573V21H132.213L131.933 19.628H131.821C131.335 20.1133 130.766 20.524 130.113 20.86C129.459 21.1773 128.797 21.336 128.125 21.336ZM129.189 17.976C129.637 17.976 130.038 17.8827 130.393 17.696C130.766 17.5093 131.121 17.1827 131.457 16.716V11.032C131.102 10.696 130.719 10.4627 130.309 10.332C129.917 10.2013 129.534 10.136 129.161 10.136C128.507 10.136 127.929 10.4533 127.425 11.088C126.921 11.704 126.669 12.6747 126.669 14C126.669 15.3627 126.883 16.3707 127.313 17.024C127.761 17.6587 128.386 17.976 129.189 17.976ZM145.715 21.336C144.39 21.336 143.195 21.0467 142.131 20.468C141.067 19.8893 140.227 19.0587 139.611 17.976C138.995 16.8933 138.687 15.5867 138.687 14.056C138.687 12.544 138.995 11.2467 139.611 10.164C140.246 9.08133 141.067 8.25067 142.075 7.672C143.083 7.07467 144.138 6.776 145.239 6.776C146.565 6.776 147.657 7.07467 148.515 7.672C149.393 8.25067 150.046 9.044 150.475 10.052C150.923 11.0413 151.147 12.1707 151.147 13.44C151.147 13.7947 151.129 14.1493 151.091 14.504C151.054 14.84 151.017 15.092 150.979 15.26H142.663C142.85 16.268 143.27 17.0147 143.923 17.5C144.577 17.9667 145.361 18.2 146.275 18.2C147.265 18.2 148.263 17.892 149.271 17.276L150.643 19.768C149.934 20.2533 149.141 20.636 148.263 20.916C147.386 21.196 146.537 21.336 145.715 21.336ZM142.635 12.544H147.647C147.647 11.7787 147.461 11.1533 147.087 10.668C146.733 10.164 146.145 9.912 145.323 9.912C144.689 9.912 144.119 10.136 143.615 10.584C143.111 11.0133 142.785 11.6667 142.635 12.544Z" fill="#3DA083"/>
</svg>
