<svg width="24" height="24" viewBox="0 0 24 24" fill="none" xmlns="http://www.w3.org/2000/svg">
<path d="M23 23L15.6667 15.6667M1 9.55556C1 10.6791 1.2213 11.7916 1.65125 12.8296C2.08121 13.8676 2.71141 14.8108 3.50586 15.6052C4.30032 16.3997 5.24348 17.0299 6.28149 17.4599C7.31949 17.8898 8.43202 18.1111 9.55556 18.1111C10.6791 18.1111 11.7916 17.8898 12.8296 17.4599C13.8676 17.0299 14.8108 16.3997 15.6052 15.6052C16.3997 14.8108 17.0299 13.8676 17.4599 12.8296C17.8898 11.7916 18.1111 10.6791 18.1111 9.55556C18.1111 8.43202 17.8898 7.31949 17.4599 6.28149C17.0299 5.24348 16.3997 4.30032 15.6052 3.50586C14.8108 2.71141 13.8676 2.08121 12.8296 1.65125C11.7916 1.2213 10.6791 1 9.55556 1C8.43202 1 7.31949 1.2213 6.28149 1.65125C5.24348 2.08121 4.30032 2.71141 3.50586 3.50586C2.71141 4.30032 2.08121 5.24348 1.65125 6.28149C1.2213 7.31949 1 8.43202 1 9.55556Z" stroke="#3DA083" stroke-width="1.5" stroke-linecap="round" stroke-linejoin="round"/>
</svg>
