<svg width="37" height="47" viewBox="0 0 37 47" fill="none" xmlns="http://www.w3.org/2000/svg">
<path d="M36.922 24.6403L34.702 20.234C34.5762 19.9852 34.3204 19.8281 34.04 19.8281H29.4636C29.5466 19.5973 29.6 19.3525 29.6 19.0938C29.6 17.8789 28.6042 16.8906 27.38 16.8906V13.9531C27.38 13.5472 27.049 13.2188 26.64 13.2188H23.322L27.1277 4.40625H27.38C28.6042 4.40625 29.6 3.418 29.6 2.20312C29.6 0.988251 28.6042 0 27.38 0H3.7C2.47582 0 1.48 0.988251 1.48 2.20312C1.48 3.418 2.47582 4.40625 3.7 4.40625H3.9523L7.75803 13.2188H4.44C4.03098 13.2188 3.7 13.5472 3.7 13.9531V16.8906H0.74C0.330977 16.8906 0 17.2191 0 17.625C0 19.1847 0.989271 20.5117 2.37456 21.0429L5.07232 26.3973L3.46803 28.9447C2.16725 31.0101 1.48 33.389 1.48 35.8244V36.8579C1.48 40.722 3.19559 44.3565 6.18594 46.83C6.31891 46.9398 6.48656 47 6.66 47H24.42C24.5934 47 24.7611 46.9398 24.8941 46.83C27.8844 44.3565 29.6 40.722 29.6 36.8579V35.8244C29.6 33.389 28.9128 31.0101 27.612 28.9447C27.55 28.8463 27.5005 28.742 27.4446 28.6406H30.34C30.486 28.6406 30.6291 28.5976 30.7505 28.5173L31.82 27.8094V35.9844C31.82 38.0089 33.4799 39.6562 35.52 39.6562H36.26C36.669 39.6562 37 39.3278 37 38.9219V24.9688C37 24.8547 36.9733 24.7421 36.922 24.6403ZM2.96 2.20312C2.96 1.79793 3.2917 1.46875 3.7 1.46875H27.38C27.7883 1.46875 28.12 1.79793 28.12 2.20312C28.12 2.60832 27.7883 2.9375 27.38 2.9375H3.7C3.2917 2.9375 2.96 2.60832 2.96 2.20312ZM5.56229 4.40625H25.5177L21.7122 13.2188H9.36779L5.56229 4.40625ZM5.18 14.6875H25.9V16.8906H5.18V14.6875ZM1.60646 18.3594H27.38C27.7883 18.3594 28.12 18.6886 28.12 19.0938C28.12 19.4989 27.7883 19.8281 27.38 19.8281H3.7C2.73525 19.8281 1.91215 19.2142 1.60646 18.3594ZM28.12 35.8244V36.8579C28.12 40.197 26.6754 43.3432 24.1476 45.5312H6.93244C4.40459 43.3432 2.96 40.197 2.96 36.8579V35.8244C2.96 33.6644 3.56992 31.5545 4.72256 29.7235L6.54727 26.8269C6.68385 26.6096 6.69686 26.3378 6.58195 26.109L4.15744 21.2969H26.3119L25.6753 22.9808C24.8384 25.1968 25.0935 27.7169 26.3574 29.7235C27.5101 31.5545 28.12 33.6644 28.12 35.8244ZM35.52 38.1875C34.2958 38.1875 33.3 37.1992 33.3 35.9844V26.4375C33.3 26.1664 33.1497 25.9176 32.909 25.7899C32.6691 25.6622 32.3764 25.6766 32.1495 25.8265L30.116 27.1719H26.8638C26.6831 26.4528 26.6289 25.7065 26.7119 24.9688H30.34C30.749 24.9688 31.08 24.6403 31.08 24.2344C31.08 23.8285 30.749 23.5 30.34 23.5H27.0604L27.0613 23.4971L27.893 21.2969H33.5826L35.52 25.1423V38.1875ZM24.8355 31.1572L24.0543 31.3393C21.3321 31.9762 18.5491 32.0844 15.7821 31.6628L15.3001 31.5896C11.9925 31.0847 8.68127 31.2877 5.45967 32.1935C5.2248 32.2594 5.03764 32.4359 4.95959 32.6661C4.61488 33.6837 4.44 34.7458 4.44 35.823V36.8586C4.44 39.4848 5.44955 41.9641 7.28293 43.8395C7.4224 43.9822 7.61391 44.0625 7.81408 44.0625H23.2659C23.4661 44.0625 23.6576 43.9822 23.7971 43.8395C25.6305 41.9641 26.64 39.4848 26.64 36.8586V35.823C26.64 34.3299 26.3148 32.8941 25.6731 31.5566C25.5235 31.2446 25.1759 31.0797 24.8355 31.1572ZM25.16 36.8586C25.16 38.9979 24.3759 41.0224 22.9451 42.5938H8.13494C6.70408 41.0224 5.92 38.9979 5.92 36.8586V35.823C5.92 35.0341 6.02984 34.2553 6.24736 33.5023C9.14232 32.7421 12.111 32.5893 15.0753 33.0411L15.5573 33.1143C18.5123 33.5661 21.4853 33.4499 24.3933 32.7693L24.5725 32.727C24.9627 33.7103 25.16 34.7487 25.16 35.823V36.8586ZM15.54 30.1237C17.1725 30.1237 18.5 28.8063 18.5 27.1862C18.5 25.7612 16.4932 23.4692 16.0907 23.0238C15.8103 22.714 15.2697 22.714 14.9893 23.0238C14.5868 23.4692 12.58 25.7612 12.58 27.1862C12.58 28.8063 13.9075 30.1237 15.54 30.1237ZM15.54 24.6518C16.3248 25.625 17.02 26.7186 17.02 27.1862C17.02 27.9959 16.3559 28.655 15.54 28.655C14.7241 28.655 14.06 27.9959 14.06 27.1862C14.06 26.7186 14.7552 25.625 15.54 24.6518Z" fill="#171614"/>
</svg>
