<svg width="37" height="45" viewBox="0 0 37 45" fill="none" xmlns="http://www.w3.org/2000/svg">
<path d="M36.4241 23.5918L34.2641 19.373C34.1417 19.1348 33.8928 18.9844 33.62 18.9844H29.1673C29.248 18.7634 29.3 18.529 29.3 18.2812C29.3 17.1181 28.3311 16.1719 27.14 16.1719V13.3594C27.14 12.9707 26.818 12.6562 26.42 12.6562H23.1916L26.8945 4.21875H27.14C28.3311 4.21875 29.3 3.27255 29.3 2.10938C29.3 0.946198 28.3311 0 27.14 0H4.1C2.90891 0 1.94 0.946198 1.94 2.10938C1.94 3.27255 2.90891 4.21875 4.1 4.21875H4.34548L8.04835 12.6562H4.82C4.42203 12.6562 4.1 12.9707 4.1 13.3594V16.1719H1.22C0.822031 16.1719 0.5 16.4864 0.5 16.875C0.5 18.3684 1.46253 19.6389 2.81038 20.1474L5.43523 25.274L3.8743 27.713C2.60867 29.6906 1.94 31.9682 1.94 34.3V35.2895C1.94 38.9891 3.60922 42.469 6.51875 44.8373C6.64813 44.9423 6.81125 45 6.98 45H24.26C24.4288 45 24.5919 44.9423 24.7213 44.8373C27.6308 42.469 29.3 38.9891 29.3 35.2895V34.3C29.3 31.9682 28.6313 29.6906 27.3657 27.713C27.3054 27.6188 27.2573 27.5189 27.2028 27.4219H30.02C30.162 27.4219 30.3013 27.3807 30.4194 27.3038L31.46 26.6261V34.4531C31.46 36.3915 33.0751 37.9688 35.06 37.9688H35.78C36.178 37.9688 36.5 37.6543 36.5 37.2656V23.9062C36.5 23.7971 36.474 23.6893 36.4241 23.5918ZM3.38 2.10938C3.38 1.72142 3.70273 1.40625 4.1 1.40625H27.14C27.5373 1.40625 27.86 1.72142 27.86 2.10938C27.86 2.49733 27.5373 2.8125 27.14 2.8125H4.1C3.70273 2.8125 3.38 2.49733 3.38 2.10938ZM5.91195 4.21875H25.328L21.6254 12.6562H9.61461L5.91195 4.21875ZM5.54 14.0625H25.7V16.1719H5.54V14.0625ZM2.06305 17.5781H27.14C27.5373 17.5781 27.86 17.8933 27.86 18.2812C27.86 18.6692 27.5373 18.9844 27.14 18.9844H4.1C3.16133 18.9844 2.36047 18.3966 2.06305 17.5781ZM27.86 34.3V35.2895C27.86 38.4865 26.4545 41.4988 23.9949 43.5938H7.24508C4.78555 41.4988 3.38 38.4865 3.38 35.2895V34.3C3.38 32.2318 3.97344 30.2117 5.09492 28.4587L6.87031 25.6853C7.0032 25.4773 7.01586 25.2171 6.90406 24.998L4.54508 20.3906H26.1008L25.4813 22.0029C24.6671 24.1246 24.9153 26.5375 26.1451 28.4587C27.2666 30.2117 27.86 32.2318 27.86 34.3ZM35.06 36.5625C33.8689 36.5625 32.9 35.6163 32.9 34.4531V25.3125C32.9 25.0529 32.7537 24.8147 32.5196 24.6925C32.2862 24.5702 32.0014 24.584 31.7806 24.7275L29.802 26.0156H26.6378C26.4619 25.3272 26.4092 24.6126 26.4899 23.9062H30.02C30.418 23.9062 30.74 23.5918 30.74 23.2031C30.74 22.8145 30.418 22.5 30.02 22.5H26.829L26.8299 22.4973L27.6392 20.3906H33.1749L35.06 24.0724V36.5625ZM24.6643 29.8313L23.9042 30.0057C21.2555 30.6155 18.5478 30.7191 15.8555 30.3154L15.3866 30.2454C12.1684 29.762 8.94664 29.9563 5.81211 30.8235C5.58359 30.8867 5.40148 31.0556 5.32555 31.276C4.99016 32.2504 4.82 33.2673 4.82 34.2986V35.2901C4.82 37.8046 5.80227 40.1784 7.58609 41.974C7.7218 42.1106 7.90813 42.1875 8.10289 42.1875H23.1371C23.3319 42.1875 23.5182 42.1106 23.6539 41.974C25.4377 40.1784 26.42 37.8046 26.42 35.2901V34.2986C26.42 32.869 26.1036 31.4944 25.4792 30.2138C25.3337 29.9151 24.9955 29.7572 24.6643 29.8313ZM24.98 35.2901C24.98 37.3384 24.2171 39.2768 22.8249 40.7812H8.41508C7.02289 39.2768 6.26 37.3384 6.26 35.2901V34.2986C6.26 33.5433 6.36688 32.7976 6.57852 32.0766C9.39524 31.3488 12.2837 31.2025 15.1679 31.6351L15.6369 31.7052C18.512 32.1378 21.4046 32.0265 24.234 31.3749L24.4084 31.3344C24.788 32.2758 24.98 33.27 24.98 34.2986V35.2901ZM15.62 28.8419C17.2084 28.8419 18.5 27.5805 18.5 26.0294C18.5 24.665 16.5474 22.4705 16.1558 22.0441C15.883 21.7474 15.357 21.7474 15.0842 22.0441C14.6926 22.4705 12.74 24.665 12.74 26.0294C12.74 27.5805 14.0316 28.8419 15.62 28.8419ZM15.62 23.6028C16.3836 24.5345 17.06 25.5817 17.06 26.0294C17.06 26.8046 16.4138 27.4356 15.62 27.4356C14.8262 27.4356 14.18 26.8046 14.18 26.0294C14.18 25.5817 14.8564 24.5345 15.62 23.6028Z" fill="#BDBDBD"/>
</svg>
