<svg width="33" height="49" viewBox="0 0 33 49" fill="none" xmlns="http://www.w3.org/2000/svg">
<path fill-rule="evenodd" clip-rule="evenodd" d="M27.5716 7.48261V3.43097C27.5716 3.21605 27.4938 3.00994 27.3554 2.85797C27.217 2.706 27.0292 2.62062 26.8335 2.62062H19.4524V7.48261H27.5716ZM17.9763 7.48261V2.62062H15.024V7.48261H17.9763ZM14.6844 9.10336H17.334L15.3634 12.3447H12.7137L14.6844 9.10336ZM12.9203 9.10336L10.7209 12.7255C10.6504 12.8451 10.6099 12.983 10.6034 13.1253C10.597 13.2675 10.6248 13.4091 10.684 13.5359C10.7468 13.6653 10.8403 13.7735 10.9547 13.8492C11.0691 13.9248 11.2 13.965 11.3335 13.9653H15.762C15.8849 13.9629 16.0053 13.9268 16.1123 13.8603C16.2193 13.7938 16.3095 13.699 16.3746 13.5845L19.0956 9.10336H27.2173L24.8555 15.586H2.83128L5.1931 9.10336H12.9203ZM13.5478 7.48261V2.62062H6.16734C5.97159 2.62062 5.78386 2.706 5.64544 2.85797C5.50703 3.00994 5.42927 3.21605 5.42927 3.43097V7.48261H13.5478ZM18.7144 0.999939H14.2859H6.16734C5.58009 0.999939 5.01689 1.25606 4.60165 1.71197C4.1864 2.16788 3.95311 2.78622 3.95311 3.43097V8.13505L1.05252 16.0965C1.01302 16.2053 0.9955 16.3219 1.00097 16.4385V45.569C1.00097 46.2138 1.23425 46.8321 1.6495 47.288C2.06475 47.7439 2.62794 48.0001 3.21519 48.0001H25.3575C25.3645 48.0001 25.3716 48 25.3786 47.9997H29.7857C30.373 47.9997 30.9362 47.7436 31.3514 47.2877C31.7667 46.8318 32 46.2135 32 45.5687V16.3964C31.9977 16.294 31.9803 16.1927 31.9483 16.0965L29.0477 8.13506V3.43097C29.0477 2.78622 28.8144 2.16788 28.3992 1.71197C27.9839 1.25606 27.4207 0.999939 26.8335 0.999939H18.7144ZM2.47712 17.2071H24.6192V46.3794H3.21519C3.01944 46.3794 2.83171 46.294 2.6933 46.142C2.55488 45.9901 2.47712 45.784 2.47712 45.569V17.2071ZM26.0956 16.5541V46.379H29.7857C29.9815 46.379 30.1692 46.2937 30.3076 46.1417C30.4461 45.9897 30.5238 45.7836 30.5238 45.5687V16.5503L28.3104 10.4749L26.0956 16.5541ZM12.0716 37.5219C11.5736 37.5386 11.0776 37.4461 10.6125 37.2499C10.2341 37.0903 9.88229 36.8646 9.57055 36.5821C9.55071 36.5715 9.53129 36.5599 9.51234 36.5474C9.42918 36.4924 9.35674 36.4199 9.29915 36.3341C9.28042 36.3062 9.2634 36.2771 9.24814 36.2469C7.65831 34.3195 8.16071 30.8275 10.411 28.3569C12.7138 25.8286 15.9908 25.31 17.7179 27.2062C19.445 29.1024 18.9727 32.7003 16.6699 35.2286C15.4677 36.6214 13.8179 37.4442 12.0716 37.5219ZM9.81179 33.7933C9.66949 32.4792 10.2791 30.803 11.4664 29.4995C12.3973 28.4161 13.6698 27.7639 15.024 27.6762C15.3282 27.6618 15.6319 27.7146 15.9172 27.8315C16.0855 27.9005 16.2453 27.991 16.3935 28.1007C15.9939 29.7048 14.7239 30.352 13.2379 31.1039L13.2339 31.1059C11.9854 31.7359 10.6191 32.4253 9.81179 33.7933ZM10.7386 35.4994C11.1607 33.9553 12.4124 33.3175 13.8727 32.5787L13.8767 32.5767C15.1292 31.9447 16.5003 31.2529 17.3066 29.876C17.4148 31.177 16.8061 32.81 15.6439 34.086C14.0862 35.7963 11.9815 36.3739 10.7386 35.4994ZM20.9289 40.7066H6.16734C5.58009 40.7066 5.01689 40.4505 4.60165 39.9946C4.1864 39.5387 3.95311 38.9203 3.95311 38.2756V25.3101C3.95311 24.6654 4.1864 24.047 4.60165 23.5911C5.01689 23.1352 5.58009 22.8791 6.16734 22.8791H20.9289C21.5161 22.8791 22.0793 23.1352 22.4946 23.5911C22.9098 24.047 23.1431 24.6654 23.1431 25.3101V38.2756C23.1431 38.9203 22.9098 39.5387 22.4946 39.9946C22.0793 40.4505 21.5161 40.7066 20.9289 40.7066ZM6.16734 24.4998C5.97159 24.4998 5.78386 24.5851 5.64544 24.7371C5.50703 24.8891 5.42927 25.0952 5.42927 25.3101V38.2756C5.42927 38.4905 5.50703 38.6966 5.64544 38.8486C5.78386 39.0006 5.97159 39.0859 6.16734 39.0859H20.9289C21.1246 39.0859 21.3124 39.0006 21.4508 38.8486C21.5892 38.6966 21.6669 38.4905 21.6669 38.2756V25.3101C21.6669 25.0952 21.5892 24.8891 21.4508 24.7371C21.3124 24.5851 21.1246 24.4998 20.9289 24.4998H6.16734Z" fill="#171614"/>
</svg>
