<svg width="31" height="45" viewBox="0 0 31 45" fill="none" xmlns="http://www.w3.org/2000/svg">
<path fill-rule="evenodd" clip-rule="evenodd" d="M26.5716 6.20679V2.32757C26.5716 2.1218 26.4938 1.92446 26.3554 1.77896C26.217 1.63346 26.0292 1.55172 25.8335 1.55172H18.4524V6.20679H26.5716ZM16.9763 6.20679V1.55172H14.024V6.20679H16.9763ZM13.6844 7.75858H16.3341L14.3634 10.8619H11.7137L13.6844 7.75858ZM11.9204 7.75858L9.72094 11.2266C9.65046 11.3411 9.60994 11.4731 9.60346 11.6093C9.59698 11.7455 9.62477 11.8811 9.68404 12.0024C9.74679 12.1263 9.84034 12.23 9.95472 12.3024C10.0691 12.3748 10.2 12.4133 10.3335 12.4137H14.762C14.8849 12.4113 15.0053 12.3767 15.1123 12.3131C15.2193 12.2494 15.3095 12.1586 15.3746 12.049L18.0956 7.75858H26.2173L23.8555 13.9654H1.83129L4.19311 7.75858H11.9204ZM12.5478 6.20679V1.55172H5.16734C4.97159 1.55172 4.78386 1.63346 4.64544 1.77896C4.50703 1.92446 4.42927 2.1218 4.42927 2.32757V6.20679H12.5478ZM17.7144 0H13.2859H5.16734C4.58009 0 4.01689 0.245226 3.60165 0.681731C3.1864 1.11824 2.95311 1.71026 2.95311 2.32757V6.8315L0.0525274 14.4542C0.013029 14.5583 -0.00448926 14.6699 0.000976562 14.7815V42.6724C0.000976562 43.2897 0.23426 43.8818 0.649509 44.3183C1.06476 44.7548 1.62796 45 2.21521 45H24.3575L24.3692 44.9999L24.3787 44.9997H28.7857C29.373 44.9997 29.9362 44.7545 30.3514 44.318C30.7667 43.8814 31 43.2894 31 42.6721V14.7412C30.9977 14.6432 30.9803 14.5463 30.9483 14.4542L28.0477 6.83145V2.32757C28.0477 1.71026 27.8144 1.11824 27.3992 0.681731C26.9839 0.245226 26.4207 0 25.8335 0H17.7144ZM1.47713 15.5174H23.6192V43.4483H2.21521C2.01946 43.4483 1.83172 43.3665 1.69331 43.221C1.55489 43.0755 1.47713 42.8782 1.47713 42.6724V15.5174ZM25.0956 14.8922V43.448H28.7857C28.9815 43.448 29.1692 43.3662 29.3076 43.2207C29.4461 43.0752 29.5238 42.8779 29.5238 42.6721V14.8886L27.3104 9.07176L25.0956 14.8922ZM11.0717 34.9677C10.5737 34.9837 10.0776 34.8952 9.61253 34.7074C9.23408 34.5545 8.88229 34.3384 8.57055 34.0679C8.55072 34.0578 8.5313 34.0467 8.51235 34.0347C8.4292 33.982 8.35675 33.9126 8.29916 33.8305C8.28043 33.8037 8.26341 33.7759 8.24815 33.747C6.65832 31.9016 7.16072 28.5582 9.41098 26.1928C11.7138 23.7721 14.9908 23.2755 16.7179 25.091C18.445 26.9065 17.9727 30.3514 15.6699 32.772C14.4677 34.1056 12.8179 34.8933 11.0717 34.9677ZM8.8118 31.3978C8.66951 30.1396 9.27913 28.5348 10.4664 27.2867C11.3973 26.2495 12.6698 25.625 14.024 25.541C14.3282 25.5272 14.6319 25.5778 14.9172 25.6897C15.0855 25.7558 15.2454 25.8424 15.3936 25.9475C14.994 27.4833 13.724 28.103 12.2379 28.8228L12.2339 28.8248C10.9854 29.4279 9.61909 30.088 8.8118 31.3978ZM9.73858 33.0313C10.1607 31.553 11.4124 30.9423 12.8727 30.2349L12.8767 30.233C14.1292 29.6279 15.5003 28.9655 16.3066 27.6473C16.4148 28.8929 15.8061 30.4564 14.6439 31.6781C13.0862 33.3156 10.9815 33.8686 9.73858 33.0313ZM19.9289 38.0169H5.16735C4.5801 38.0169 4.01691 37.7717 3.60166 37.3352C3.18641 36.8987 2.95312 36.3067 2.95312 35.6894V23.2756C2.95312 22.6583 3.18641 22.0663 3.60166 21.6298C4.01691 21.1933 4.5801 20.9481 5.16735 20.9481H19.9289C20.5161 20.9481 21.0793 21.1933 21.4946 21.6298C21.9098 22.0663 22.1431 22.6583 22.1431 23.2756V35.6894C22.1431 36.3067 21.9098 36.8987 21.4946 37.3352C21.0793 37.7717 20.5161 38.0169 19.9289 38.0169ZM5.16735 22.4998C4.9716 22.4998 4.78387 22.5815 4.64545 22.727C4.50704 22.8725 4.42928 23.0699 4.42928 23.2756V35.6894C4.42928 35.8951 4.50704 36.0925 4.64545 36.238C4.78387 36.3835 4.9716 36.4652 5.16735 36.4652H19.9289C20.1246 36.4652 20.3124 36.3835 20.4508 36.238C20.5892 36.0925 20.667 35.8951 20.667 35.6894V23.2756C20.667 23.0699 20.5892 22.8725 20.4508 22.727C20.3124 22.5815 20.1246 22.4998 19.9289 22.4998H5.16735Z" fill="#BDBDBD"/>
</svg>
