<svg width="43" height="45" viewBox="0 0 43 45" fill="none" xmlns="http://www.w3.org/2000/svg">
<path d="M21.5 11.25C23.6713 11.25 25.4375 9.3576 25.4375 7.03125C25.4375 4.7049 23.6713 2.8125 21.5 2.8125C19.3288 2.8125 17.5625 4.7049 17.5625 7.03125C17.5625 9.3576 19.3288 11.25 21.5 11.25ZM21.5 4.21875C22.9474 4.21875 24.125 5.48012 24.125 7.03125C24.125 8.58238 22.9474 9.84375 21.5 9.84375C20.0526 9.84375 18.875 8.58238 18.875 7.03125C18.875 5.48012 20.0526 4.21875 21.5 4.21875ZM20.3798 8.23151C20.1234 7.95685 20.1234 7.5119 20.3798 7.23724L21.6923 5.83099C21.9486 5.55634 22.3639 5.55634 22.6203 5.83099C22.8766 6.10565 22.8766 6.5506 22.6203 6.82526L21.3078 8.23151C21.1796 8.36884 21.0117 8.4375 20.8438 8.4375C20.6759 8.4375 20.508 8.36884 20.3798 8.23151ZM28.7188 10.5469H36.5938C36.9562 10.5469 37.25 10.2324 37.25 9.84375V4.21875C37.25 3.83011 36.9562 3.51562 36.5938 3.51562H28.7188C28.3564 3.51562 28.0625 3.83011 28.0625 4.21875V9.84375C28.0625 10.2324 28.3564 10.5469 28.7188 10.5469ZM29.375 4.92188H35.9375V9.14062H29.375V4.92188ZM5.75005 4.21875C5.75005 3.83011 6.04389 3.51562 6.4063 3.51562H12.3125C12.675 3.51562 12.9688 3.83011 12.9688 4.21875C12.9688 4.60739 12.675 4.92188 12.3125 4.92188H6.4063C6.04389 4.92188 5.75005 4.60739 5.75005 4.21875ZM5.75005 7.03125C5.75005 6.64261 6.04389 6.32812 6.4063 6.32812H12.3125C12.675 6.32812 12.9688 6.64261 12.9688 7.03125C12.9688 7.41989 12.675 7.73438 12.3125 7.73438H6.4063C6.04389 7.73438 5.75005 7.41989 5.75005 7.03125ZM5.75005 9.84375C5.75005 9.45511 6.04389 9.14062 6.4063 9.14062H12.3125C12.675 9.14062 12.9688 9.45511 12.9688 9.84375C12.9688 10.2324 12.675 10.5469 12.3125 10.5469H6.4063C6.04389 10.5469 5.75005 10.2324 5.75005 9.84375ZM41.1875 16.875H38.5625V14.0625H39.2188C40.3044 14.0625 41.1875 13.1163 41.1875 11.9531V2.10938C41.1875 0.946198 40.3044 0 39.2188 0H3.78131C2.69567 0 1.81256 0.946198 1.81256 2.10938V11.9531C1.81256 13.1163 2.69567 14.0625 3.78131 14.0625H4.43755V20.7761C4.11804 20.5769 3.75835 20.4411 3.36666 20.4023C1.92022 20.2698 0.644255 21.4007 0.511275 22.9443C0.377974 24.4885 1.44214 25.8611 2.88345 26.004C2.96516 26.0115 3.04623 26.0156 3.12666 26.0156C3.60106 26.0156 4.04831 25.8725 4.43755 25.6301V39.375H3.12506C2.4012 39.375 1.81256 40.006 1.81256 40.7812V43.5938C1.81256 44.369 2.4012 45 3.12506 45H39.875C40.5989 45 41.1875 44.369 41.1875 43.5938V40.7812C41.1875 40.006 40.5989 39.375 39.875 39.375H38.5625V22.5H41.1875C41.9114 22.5 42.5 21.869 42.5 21.0938V18.2812C42.5 17.506 41.9114 16.875 41.1875 16.875ZM37.25 16.875H32C31.2762 16.875 30.6875 17.506 30.6875 18.2812V18.9844H28.0625V17.5781C28.0625 16.4149 27.1794 15.4688 26.0938 15.4688V14.0625H37.25V16.875ZM19.5313 23.9062H23.4688V26.0156H19.5313V23.9062ZM16.9063 22.5C16.5445 22.5 16.25 22.1848 16.25 21.7969V17.5781C16.25 17.1902 16.5445 16.875 16.9063 16.875H26.0938C26.4555 16.875 26.75 17.1902 26.75 17.5781V21.7969C26.75 22.1848 26.4555 22.5 26.0938 22.5H16.9063ZM18.2188 14.0625H24.7813V15.4688H18.2188V14.0625ZM3.12506 11.9531V2.10938C3.12506 1.72142 3.41953 1.40625 3.78131 1.40625H39.2188C39.5805 1.40625 39.875 1.72142 39.875 2.10938V11.9531C39.875 12.3411 39.5805 12.6562 39.2188 12.6562H3.78131C3.41953 12.6562 3.12506 12.3411 3.12506 11.9531ZM9.0313 16.1719V14.0625H11.6563V16.1719H9.0313ZM7.7188 14.0625V16.875C7.7188 17.2636 8.01264 17.5781 8.37505 17.5781H9.68755V19.8983L5.75005 21.4337V14.0625H7.7188ZM3.00393 24.6032C2.2836 24.5325 1.75168 23.8458 1.81801 23.0733C1.88081 22.3455 2.45439 21.7969 3.12441 21.7969C3.16447 21.7969 3.20516 21.7989 3.24618 21.8031C3.76352 21.8539 4.17944 22.2245 4.3506 22.7144C4.35188 22.7184 4.35096 22.7226 4.35232 22.7266C4.35576 22.7368 4.36265 22.7441 4.3665 22.754C4.42386 22.9351 4.44949 23.1306 4.43211 23.3329C4.36546 24.104 3.73228 24.6746 3.00393 24.6032ZM39.876 43.5938H3.12506V40.7812H39.875L39.876 43.5938ZM16.2701 34.1738L16.8403 33.8681C17.7349 33.3881 18.7811 33.3421 19.7104 33.7404C20.8646 34.2348 22.1355 34.2348 23.2897 33.7404C24.218 33.3428 25.2642 33.3888 26.1595 33.8681L26.73 34.1738C26.5264 37.0775 24.2613 39.375 21.5 39.375C18.7387 39.375 16.4736 37.0776 16.2701 34.1738ZM30.6875 30.9375V32.3438C30.6875 33.8949 29.5099 35.1562 28.0625 35.1562H27.9303C28.0137 34.7176 28.0571 34.2638 28.0602 33.8C28.0604 33.7962 28.0605 33.7926 28.0607 33.7888C28.0608 33.7757 28.0625 33.7631 28.0625 33.75V30.9375H30.6875ZM26.75 32.6122L26.7462 32.6102C25.5163 31.9517 24.0789 31.8885 22.802 32.4344C21.9627 32.7949 21.038 32.7962 20.1981 32.4344C18.9215 31.8864 17.4834 31.9517 16.2536 32.6102L16.25 32.6121V30.2344H26.75V32.6122ZM37.25 39.375H25.4207C26.3253 38.6493 27.0517 37.6842 27.5107 36.5625H28.0625C30.2338 36.5625 32 34.6701 32 32.3438V30.9375C32 30.1623 31.4114 29.5312 30.6875 29.5312H27.8799C27.6522 29.113 27.2337 28.8281 26.75 28.8281H16.25C15.5262 28.8281 14.9375 29.4592 14.9375 30.2344V33.75C14.9375 33.7631 14.9393 33.7757 14.9394 33.7888C14.9396 33.7926 14.9397 33.7962 14.9399 33.8C14.955 36.0806 15.9912 38.1009 17.5793 39.375H5.75005V22.9298L10.5681 21.0512C10.8273 20.9502 11 20.6866 11 20.3906V17.5781H12.3125C12.675 17.5781 12.9688 17.2636 12.9688 16.875V14.0625H16.9063V15.4688C15.8207 15.4688 14.9375 16.4149 14.9375 17.5781V21.7969C14.9375 22.9601 15.8207 23.9062 16.9063 23.9062H18.2188V26.7188C18.2188 27.1074 18.5126 27.4219 18.875 27.4219H24.125C24.4874 27.4219 24.7813 27.1074 24.7813 26.7188V23.9062H26.0938C27.1794 23.9062 28.0625 22.9601 28.0625 21.7969V20.3906H30.6875V21.0938C30.6875 21.869 31.2762 22.5 32 22.5H37.25V39.375ZM32 21.0938V18.2812H41.1875L41.1885 21.0938H32ZM11.6563 24.6094H8.37505C8.01264 24.6094 7.7188 24.9239 7.7188 25.3125V30.9375C7.7188 31.3261 8.01264 31.6406 8.37505 31.6406H11.6563C12.0187 31.6406 12.3125 31.3261 12.3125 30.9375V25.3125C12.3125 24.9239 12.0187 24.6094 11.6563 24.6094ZM11 30.2344H9.0313V26.0156H11V30.2344Z" fill="white"/>
</svg>
