<svg width="31" height="45" viewBox="0 0 31 45" fill="none" xmlns="http://www.w3.org/2000/svg">
<path d="M30.3968 12.087C30.3796 12.051 30.371 12.024 30.3538 11.988L26.6468 6.102V0.9C26.6468 0.405 26.2597 0 25.7867 0H5.2133C4.74025 0 4.35321 0.405 4.35321 0.9V6.111L0.646215 11.997C0.551605 12.141 0.5 12.312 0.5 12.492V44.1C0.5 44.595 0.887041 45 1.36009 45H9.06651H29.6399C30.113 45 30.5 44.595 30.5 44.1V12.483C30.5 12.375 30.4742 12.267 30.4398 12.168C30.4312 12.141 30.414 12.114 30.3968 12.087ZM9.52236 11.583L6.80447 7.272H25.3222L28.0401 11.583H9.52236ZM6.0734 1.8H24.9266V5.481H6.0734V1.8ZM2.22018 12.762L5.2133 8.019L8.20642 12.762V43.2H2.22018V12.762ZM9.92661 43.2V13.383H28.7798V43.2H9.92661Z" fill="#BDBDBD"/>
<path d="M18.6222 22.698C18.0804 23.598 15.3711 28.179 15.3711 30.141C15.3711 32.436 17.1515 34.299 19.3447 34.299C21.538 34.299 23.3183 32.436 23.3183 30.141C23.3183 28.179 20.6091 23.598 20.0672 22.698C19.7662 22.176 18.9405 22.176 18.6222 22.698ZM19.3533 32.508C18.1062 32.508 17.0999 31.446 17.0999 30.15C17.0999 29.286 18.2524 26.892 19.3533 24.921C20.4542 26.892 21.6068 29.286 21.6068 30.15C21.6068 31.446 20.5919 32.508 19.3533 32.508Z" fill="#BDBDBD"/>
</svg>
