<svg width="31" height="45" viewBox="0 0 31 45" fill="none" xmlns="http://www.w3.org/2000/svg">
<path d="M30.3968 12.5487C30.3796 12.5143 30.371 12.4885 30.3538 12.4541L26.6468 6.82913V1.8578C26.6468 1.38475 26.2597 0.997711 25.7867 0.997711H5.2133C4.74025 0.997711 4.35321 1.38475 4.35321 1.8578V6.83773L0.646215 12.4627C0.551605 12.6003 0.5 12.7638 0.5 12.9358V43.1422C0.5 43.6153 0.887041 44.0023 1.36009 44.0023H9.06651H29.6399C30.113 44.0023 30.5 43.6153 30.5 43.1422V12.9272C30.5 12.824 30.4742 12.7208 30.4398 12.6262C30.4312 12.6004 30.414 12.5745 30.3968 12.5487ZM9.52236 12.0671L6.80447 7.94725H25.3222L28.0401 12.0671H9.52236ZM6.0734 2.71789H24.9266V6.23567H6.0734V2.71789ZM2.22018 13.1938L5.2133 8.66113L8.20642 13.1938V42.2821H2.22018V13.1938ZM9.92661 42.2821V13.7873H28.7798V42.2821H9.92661Z" fill="#171614"/>
<path d="M18.622 22.698C18.0801 23.598 15.3708 28.179 15.3708 30.141C15.3708 32.436 17.1512 34.299 19.3445 34.299C21.5377 34.299 23.3181 32.436 23.3181 30.141C23.3181 28.179 20.6088 23.598 20.067 22.698C19.7659 22.176 18.9402 22.176 18.622 22.698ZM19.3531 32.508C18.1059 32.508 17.0996 31.446 17.0996 30.15C17.0996 29.286 18.2522 26.892 19.3531 24.921C20.454 26.892 21.6065 29.286 21.6065 30.15C21.6065 31.446 20.5916 32.508 19.3531 32.508Z" fill="#171614"/>
</svg>
