<svg width="44" height="44" viewBox="0 0 44 44" fill="none" xmlns="http://www.w3.org/2000/svg">
<circle cx="22" cy="22" r="22" fill="#171614" fill-opacity="0.4"/>
<path d="M30.825 12.175C30.1261 11.4761 29.1781 11.0834 28.1896 11.0834C27.2012 11.0834 26.2532 11.4761 25.5542 12.175L13.1042 24.625C12.6811 25.0482 12.3836 25.5804 12.2448 26.1625L11.1042 30.9562C11.0733 31.0861 11.0762 31.2217 11.1126 31.3501C11.149 31.4785 11.2177 31.5954 11.3121 31.6898C11.4066 31.7841 11.5236 31.8526 11.652 31.8889C11.7805 31.9252 11.9161 31.9279 12.0459 31.8969L16.8386 30.7552C17.4211 30.6166 17.9537 30.3191 18.3771 29.8958L30.825 17.4479C31.524 16.749 31.9167 15.801 31.9167 14.8125C31.9167 13.824 31.524 12.876 30.825 12.1771M26.6584 13.2812C26.8595 13.0802 27.0982 12.9207 27.3609 12.8118C27.6237 12.703 27.9052 12.647 28.1896 12.647C28.474 12.647 28.7556 12.703 29.0183 12.8118C29.2811 12.9207 29.5198 13.0802 29.7209 13.2812C29.922 13.4823 30.0815 13.7211 30.1903 13.9838C30.2991 14.2465 30.3551 14.5281 30.3551 14.8125C30.3551 15.0969 30.2991 15.3785 30.1903 15.6412C30.0815 15.9039 29.922 16.1427 29.7209 16.3437L28.7917 17.2698L25.7292 14.2083L26.6584 13.2812ZM24.625 15.3146L27.6875 18.375L17.2709 28.7917C17.0521 29.0104 16.7771 29.1635 16.4761 29.2354L12.9178 30.0833L13.7646 26.525C13.8365 26.2229 13.9907 25.9479 14.2094 25.7292L24.625 15.3146Z" fill="white"/>
</svg>
