<svg width="24" height="22" viewBox="0 0 24 22" fill="none" xmlns="http://www.w3.org/2000/svg">
<path d="M17.4545 0C15.1636 0 13.1716 1.10805 12 2.96493C10.8284 1.10805 8.83636 0 6.54545 0C4.81011 0.00216767 3.14642 0.742506 1.91935 2.05861C0.692279 3.37471 0.00202103 5.15911 0 7.02035C0 10.4369 1.98545 13.9927 5.90182 17.5872C7.69642 19.2273 9.63492 20.6771 11.6902 21.9164C11.7854 21.9713 11.8919 22 12 22C12.1081 22 12.2146 21.9713 12.3098 21.9164C14.3651 20.6771 16.3036 19.2273 18.0982 17.5872C22.0145 13.9927 24 10.4369 24 7.02035C23.998 5.15911 23.3077 3.37471 22.0806 2.05861C20.8536 0.742506 19.1899 0.00216767 17.4545 0Z" fill="#91E0C8"/>
</svg>
