<svg width="12" height="10" viewBox="0 0 12 10" fill="none" xmlns="http://www.w3.org/2000/svg">
<path d="M11.7067 0.325817C11.7997 0.428991 11.8735 0.551513 11.9238 0.686376C11.9741 0.82124 12 0.965801 12 1.11179C12 1.25778 11.9741 1.40234 11.9238 1.53721C11.8735 1.67207 11.7997 1.79459 11.7067 1.89777L4.70753 9.67418C4.61467 9.77747 4.50439 9.85941 4.38301 9.91532C4.26162 9.97123 4.13151 10 4.00011 10C3.86871 10 3.7386 9.97123 3.61721 9.91532C3.49583 9.85941 3.38555 9.77747 3.29269 9.67418L0.293023 6.34143C0.105403 6.13298 0 5.85026 0 5.55546C0 5.26066 0.105403 4.97794 0.293023 4.76949C0.480642 4.56103 0.73511 4.44393 1.00044 4.44393C1.26578 4.44393 1.52025 4.56103 1.70786 4.76949L4.00011 7.31765L10.2919 0.325817C10.3848 0.222528 10.495 0.140589 10.6164 0.0846826C10.7378 0.0287765 10.8679 0 10.9993 0C11.1307 0 11.2608 0.0287765 11.3822 0.0846826C11.5036 0.140589 11.6139 0.222528 11.7067 0.325817Z" fill="#809992"/>
</svg>
