<svg width="24" height="24" viewBox="0 0 24 24" fill="none" xmlns="http://www.w3.org/2000/svg">
<rect width="24.0033" height="24" rx="12" fill="#F2F2F2"/>
<path d="M19.8206 13.5843C19.7401 13.5036 19.6391 13.4463 19.5285 13.4187C19.4179 13.3911 19.3019 13.394 19.1929 13.4273C17.996 13.7892 16.7234 13.8195 15.5107 13.5151C14.298 13.2107 13.1905 12.583 12.3064 11.6989C11.4223 10.8148 10.7945 9.70733 10.4902 8.49459C10.1858 7.28185 10.2161 6.00925 10.5779 4.8124C10.6115 4.70334 10.6147 4.58719 10.5872 4.47644C10.5598 4.36569 10.5026 4.26453 10.4219 4.18384C10.3412 4.10316 10.24 4.04599 10.1293 4.01849C10.0185 3.991 9.9024 3.99421 9.79334 4.02779C8.13863 4.53468 6.68595 5.55055 5.64201 6.93083C4.72905 8.14293 4.17217 9.58559 4.03393 11.0967C3.8957 12.6079 4.18157 14.1276 4.85945 15.4853C5.53733 16.8429 6.58034 17.9846 7.87132 18.7821C9.1623 19.5797 10.6501 20.0014 12.1676 20C13.9379 20.0054 15.6611 19.4299 17.0729 18.3617C18.4532 17.3178 19.469 15.8651 19.9759 14.2104C20.0091 14.1017 20.0122 13.9861 19.9848 13.8758C19.9575 13.7656 19.9007 13.6648 19.8206 13.5843Z" fill="#2E3231"/>
</svg>
