<svg width="16" height="20" viewBox="0 0 16 20" fill="none" xmlns="http://www.w3.org/2000/svg">
<path d="M8 4.28576C7.2808 4.28576 6.57774 4.49522 5.97974 4.88766C5.38175 5.2801 4.91567 5.83788 4.64044 6.49048C4.36521 7.14308 4.2932 7.86118 4.43351 8.55398C4.57382 9.24678 4.92015 9.88315 5.4287 10.3826C5.93726 10.8821 6.5852 11.2223 7.29058 11.3601C7.99597 11.4979 8.72712 11.4271 9.39158 11.1568C10.056 10.8865 10.624 10.4287 11.0235 9.84142C11.4231 9.2541 11.6364 8.56359 11.6364 7.85722C11.6364 6.91001 11.2532 6.00159 10.5713 5.33182C9.88935 4.66204 8.96442 4.28576 8 4.28576ZM8 10.0001C7.56848 10.0001 7.14665 9.87442 6.78785 9.63896C6.42905 9.4035 6.1494 9.06883 5.98426 8.67727C5.81913 8.28571 5.77592 7.85484 5.86011 7.43917C5.94429 7.02349 6.15209 6.64166 6.45722 6.34198C6.76235 6.04229 7.15112 5.8382 7.57435 5.75552C7.99758 5.67283 8.43627 5.71527 8.83495 5.87746C9.23362 6.03965 9.57438 6.31431 9.81412 6.6667C10.0539 7.0191 10.1818 7.4334 10.1818 7.85722C10.1818 8.42555 9.95195 8.9706 9.54278 9.37247C9.13361 9.77433 8.57865 10.0001 8 10.0001ZM8 0C5.87901 0.00236318 3.84557 0.830934 2.3458 2.30394C0.846033 3.77694 0.00240612 5.77408 0 7.85722C0 10.6608 1.31909 13.6323 3.81818 16.4511C4.94111 17.7248 6.20496 18.8717 7.58636 19.8707C7.70865 19.9549 7.85433 20 8.00364 20C8.15294 20 8.29863 19.9549 8.42091 19.8707C9.79977 18.8713 11.0612 17.7244 12.1818 16.4511C14.6773 13.6323 16 10.6608 16 7.85722C15.9976 5.77408 15.154 3.77694 13.6542 2.30394C12.1544 0.830934 10.121 0.00236318 8 0ZM8 18.393C6.49727 17.2323 1.45455 12.9689 1.45455 7.85722C1.45455 6.15224 2.14415 4.51709 3.37166 3.31149C4.59918 2.10589 6.26404 1.42859 8 1.42859C9.73596 1.42859 11.4008 2.10589 12.6283 3.31149C13.8558 4.51709 14.5455 6.15224 14.5455 7.85722C14.5455 12.9671 9.50273 17.2323 8 18.393Z" fill="#809992"/>
</svg>
