<svg width="24" height="24" viewBox="0 0 24 24" fill="none" xmlns="http://www.w3.org/2000/svg">
<rect width="24" height="24" rx="12" fill="#2E3231"/>
<path d="M11.4667 6.13333V4.53333C11.4667 4.39188 11.5229 4.25623 11.6229 4.15621C11.7229 4.05619 11.8586 4 12 4C12.1414 4 12.2771 4.05619 12.3771 4.15621C12.4771 4.25623 12.5333 4.39188 12.5333 4.53333V6.13333C12.5333 6.27478 12.4771 6.41044 12.3771 6.51046C12.2771 6.61048 12.1414 6.66667 12 6.66667C11.8586 6.66667 11.7229 6.61048 11.6229 6.51046C11.5229 6.41044 11.4667 6.27478 11.4667 6.13333ZM16.2667 12C16.2667 12.8439 16.0164 13.6688 15.5476 14.3704C15.0788 15.0721 14.4124 15.619 13.6328 15.9419C12.8532 16.2648 11.9953 16.3493 11.1676 16.1847C10.34 16.0201 9.57972 15.6137 8.98301 15.017C8.38631 14.4203 7.97995 13.66 7.81532 12.8324C7.65069 12.0047 7.73518 11.1468 8.05811 10.3672C8.38105 9.58759 8.92792 8.92122 9.62957 8.4524C10.3312 7.98357 11.1561 7.73333 12 7.73333C13.1312 7.73457 14.2157 8.18449 15.0156 8.98438C15.8155 9.78426 16.2654 10.8688 16.2667 12ZM7.356 8.11067C7.45608 8.21074 7.59181 8.26696 7.73333 8.26696C7.87486 8.26696 8.01059 8.21074 8.11067 8.11067C8.21074 8.01059 8.26696 7.87486 8.26696 7.73333C8.26696 7.59181 8.21074 7.45607 8.11067 7.356L7.044 6.28933C6.94393 6.18926 6.80819 6.13304 6.66667 6.13304C6.52514 6.13304 6.38941 6.18926 6.28933 6.28933C6.18926 6.38941 6.13304 6.52514 6.13304 6.66667C6.13304 6.80819 6.18926 6.94392 6.28933 7.044L7.356 8.11067ZM7.356 15.8893L6.28933 16.956C6.18926 17.0561 6.13304 17.1918 6.13304 17.3333C6.13304 17.4749 6.18926 17.6106 6.28933 17.7107C6.38941 17.8107 6.52514 17.867 6.66667 17.867C6.80819 17.867 6.94393 17.8107 7.044 17.7107L8.11067 16.644C8.16022 16.5944 8.19953 16.5356 8.22634 16.4709C8.25316 16.4061 8.26696 16.3367 8.26696 16.2667C8.26696 16.1966 8.25316 16.1272 8.22634 16.0625C8.19953 15.9977 8.16022 15.9389 8.11067 15.8893C8.06112 15.8398 8.00229 15.8005 7.93755 15.7737C7.8728 15.7468 7.80341 15.733 7.73333 15.733C7.66326 15.733 7.59387 15.7468 7.52912 15.7737C7.46438 15.8005 7.40555 15.8398 7.356 15.8893ZM16.2667 8.26667C16.3367 8.26672 16.4061 8.25297 16.4709 8.22621C16.5356 8.19944 16.5944 8.16018 16.644 8.11067L17.7107 7.044C17.8107 6.94392 17.867 6.80819 17.867 6.66667C17.867 6.52514 17.8107 6.38941 17.7107 6.28933C17.6106 6.18926 17.4749 6.13304 17.3333 6.13304C17.1918 6.13304 17.0561 6.18926 16.956 6.28933L15.8893 7.356C15.8147 7.43059 15.7638 7.52566 15.7432 7.62917C15.7226 7.73268 15.7331 7.83998 15.7735 7.93749C15.8139 8.03499 15.8824 8.11832 15.9701 8.17692C16.0579 8.23552 16.1611 8.26675 16.2667 8.26667ZM16.644 15.8893C16.5439 15.7893 16.4082 15.733 16.2667 15.733C16.1251 15.733 15.9894 15.7893 15.8893 15.8893C15.7893 15.9894 15.733 16.1251 15.733 16.2667C15.733 16.4082 15.7893 16.5439 15.8893 16.644L16.956 17.7107C17.0056 17.7602 17.0644 17.7995 17.1291 17.8263C17.1939 17.8532 17.2633 17.867 17.3333 17.867C17.4034 17.867 17.4728 17.8532 17.5375 17.8263C17.6023 17.7995 17.6611 17.7602 17.7107 17.7107C17.7602 17.6611 17.7995 17.6023 17.8263 17.5375C17.8532 17.4728 17.867 17.4034 17.867 17.3333C17.867 17.2633 17.8532 17.1939 17.8263 17.1291C17.7995 17.0644 17.7602 17.0056 17.7107 16.956L16.644 15.8893ZM6.66667 12C6.66667 11.8586 6.61048 11.7229 6.51046 11.6229C6.41044 11.5229 6.27478 11.4667 6.13333 11.4667H4.53333C4.39188 11.4667 4.25623 11.5229 4.15621 11.6229C4.05619 11.7229 4 11.8586 4 12C4 12.1414 4.05619 12.2771 4.15621 12.3771C4.25623 12.4771 4.39188 12.5333 4.53333 12.5333H6.13333C6.27478 12.5333 6.41044 12.4771 6.51046 12.3771C6.61048 12.2771 6.66667 12.1414 6.66667 12ZM12 17.3333C11.8586 17.3333 11.7229 17.3895 11.6229 17.4895C11.5229 17.5896 11.4667 17.7252 11.4667 17.8667V19.4667C11.4667 19.6081 11.5229 19.7438 11.6229 19.8438C11.7229 19.9438 11.8586 20 12 20C12.1414 20 12.2771 19.9438 12.3771 19.8438C12.4771 19.7438 12.5333 19.6081 12.5333 19.4667V17.8667C12.5333 17.7252 12.4771 17.5896 12.3771 17.4895C12.2771 17.3895 12.1414 17.3333 12 17.3333ZM19.4667 11.4667H17.8667C17.7252 11.4667 17.5896 11.5229 17.4895 11.6229C17.3895 11.7229 17.3333 11.8586 17.3333 12C17.3333 12.1414 17.3895 12.2771 17.4895 12.3771C17.5896 12.4771 17.7252 12.5333 17.8667 12.5333H19.4667C19.6081 12.5333 19.7438 12.4771 19.8438 12.3771C19.9438 12.2771 20 12.1414 20 12C20 11.8586 19.9438 11.7229 19.8438 11.6229C19.7438 11.5229 19.6081 11.4667 19.4667 11.4667Z" fill="white"/>
</svg>
