<svg width="22" height="27" viewBox="0 0 22 27" fill="none" xmlns="http://www.w3.org/2000/svg">
<path d="M10.9999 27C10.8797 27 10.7599 26.968 10.6518 26.9034C10.2167 26.6434 1.1975e-08 20.4369 1.1975e-08 11.5005C-0.000280697 5.15905 4.93458 0 10.9999 0C17.0651 0 22 5.15905 22 11.5005C22 19.8086 11.8072 26.6023 11.3735 26.8876C11.2595 26.9624 11.1298 27 10.9999 27ZM10.9999 1.46739C5.70822 1.46739 1.40326 5.96817 1.40326 11.5005C1.40326 18.699 9.19013 24.2216 10.9836 25.3976C12.7661 24.1298 20.5962 18.1772 20.5962 11.5005C20.5965 5.96817 16.2915 1.46739 10.9999 1.46739ZM10.9999 16.2332C8.50352 16.2332 6.47287 14.1101 6.47287 11.5002C6.47287 8.89063 8.50352 6.76761 10.9999 6.76761C13.4962 6.76761 15.5269 8.89063 15.5269 11.5002C15.5269 14.1101 13.4962 16.2332 10.9999 16.2332ZM10.9999 8.23529C9.27743 8.23529 7.87641 9.70004 7.87641 11.5005C7.87641 13.3013 9.27743 14.7661 10.9999 14.7661C12.7223 14.7661 14.1233 13.3013 14.1233 11.5005C14.1233 9.70004 12.7223 8.23529 10.9999 8.23529Z" fill="#91E0C8"/>
</svg>
