<svg width="56" height="56" viewBox="0 0 56 56" fill="none" xmlns="http://www.w3.org/2000/svg">
<rect width="56" height="56" rx="12" fill="#2E3231"/>
<path d="M17.3335 24V20C17.3335 19.2928 17.6144 18.6145 18.1145 18.1144C18.6146 17.6143 19.2929 17.3333 20.0002 17.3333H24.0002M38.6668 32V36C38.6668 36.7072 38.3859 37.3855 37.8858 37.8856C37.3857 38.3857 36.7074 38.6667 36.0002 38.6667H32.0002M32.0002 17.3333H36.0002C36.7074 17.3333 37.3857 17.6143 37.8858 18.1144C38.3859 18.6145 38.6668 19.2928 38.6668 20V24M24.0002 38.6667H20.0002C19.2929 38.6667 18.6146 38.3857 18.1145 37.8856C17.6144 37.3855 17.3335 36.7072 17.3335 36V32" stroke="white" stroke-width="2.66667" stroke-linecap="round" stroke-linejoin="round"/>
</svg>
