<svg width="56" height="56" viewBox="0 0 56 56" fill="none" xmlns="http://www.w3.org/2000/svg">
<rect width="56" height="56" rx="12" fill="#2E3231"/>
<path d="M19.4641 37.9381L19.4642 37.9382L19.4704 37.932L27.9808 29.4228L36.4883 37.929C36.581 38.0276 36.6924 38.1067 36.8159 38.1618L36.9177 37.9334L36.816 38.1618C36.941 38.2175 37.0759 38.2474 37.2128 38.2498C37.3496 38.2523 37.4856 38.2271 37.6125 38.1758C37.7394 38.1246 37.8547 38.0483 37.9515 37.9515L37.7747 37.7747L37.9515 37.9515C38.0483 37.8547 38.1246 37.7394 38.1758 37.6125C38.2271 37.4856 38.2523 37.3496 38.2498 37.2128C38.2474 37.0759 38.2175 36.941 38.1618 36.816L37.9334 36.9177L38.1618 36.8159C38.1067 36.6924 38.0276 36.581 37.929 36.4883L29.4228 27.9808L37.932 19.4704L37.9321 19.4705L37.9381 19.4641C38.1181 19.2708 38.2161 19.0153 38.2115 18.7513C38.2068 18.4872 38.0998 18.2353 37.9131 18.0485L37.9131 18.0485C37.7264 17.8618 37.4744 17.7548 37.2104 17.7502C36.9463 17.7455 36.6908 17.8435 36.4976 18.0236L36.4975 18.0234L36.4912 18.0297L27.9808 26.5388L19.4704 18.0297L19.4705 18.0296L19.4641 18.0236C19.2709 17.8435 19.0153 17.7455 18.7513 17.7502C18.4872 17.7548 18.2353 17.8618 18.0485 18.0485C17.8618 18.2353 17.7548 18.4872 17.7502 18.7513C17.7455 19.0153 17.8435 19.2709 18.0236 19.4641L18.0234 19.4642L18.0297 19.4704L26.5388 27.9808L18.0297 36.4912L18.0296 36.4911L18.0236 36.4976C17.8435 36.6908 17.7455 36.9463 17.7502 37.2104C17.7548 37.4744 17.8618 37.7264 18.0485 37.9131L18.0485 37.9131C18.2353 38.0998 18.4872 38.2068 18.7513 38.2115C19.0153 38.2161 19.2708 38.1181 19.4641 37.9381Z" fill="white" stroke="white" stroke-width="0.5"/>
</svg>
